<?xml version="1.0" encoding="UTF-8"?>
<svg width="63px" height="38px" viewBox="0 0 63 38" version="1.1" xmlns="http://www.w3.org/2000/svg" xmlns:xlink="http://www.w3.org/1999/xlink">
    <!-- Generator: Sketch 52.5 (67469) - http://www.bohemiancoding.com/sketch -->
    <title>mastercard</title>
    <desc>Created with Sketch.</desc>
    <g id="Forms-&amp;-Popovers" stroke="none" stroke-width="1" fill="none" fill-rule="evenodd">
        <g id="web-grid" transform="translate(-304.000000, -3001.000000)">
            <g id="checkout-step-3" transform="translate(30.000000, 2760.000000)">
                <g id="pay-with-card" transform="translate(79.000000, 216.000000)">
                    <g id="mastercard" transform="translate(195.000000, 24.994681)">
                        <polyline id="Fill-2" fill="#F1AD3D" points="43.9287606 37.5463245 44.896883 37.5208564 45.8526064 37.4514894 46.7895638 37.3315213 47.7198191 37.1666489 48.6246064 36.9578777 49.5173298 36.7045372 50.390617 36.4072979 51.2451383 36.0718564 52.0802234 35.6921809 52.8905106 35.2806702 53.6753298 34.8249255 54.4410479 34.3376809 55.175266 33.8125691 55.884016 33.2556223 56.567633 32.6668404 57.2194149 32.0405266 57.8460638 31.3884096 58.4345106 30.7047926 58.9914574 29.9960426 59.5169043 29.2621596 60.0041489 28.4961064 60.4598936 27.7112872 60.8710691 26.9013351 61.2510798 26.0659149 61.5865213 25.2113936 61.8837606 24.3381064 62.1371011 23.4457181 62.3458723 22.5405957 62.5104096 21.6103404 62.6307128 20.6737181 62.7004149 19.7179947 62.7255479 18.7498723 62.7004149 17.7877819 62.6307128 16.8384255 62.5104096 15.9018032 62.3458723 14.9839468 62.1371011 14.0788245 61.8837606 13.1931383 61.5865213 12.319516 61.2510798 11.4713617 60.8710691 10.6423085 60.4598936 9.83235638 60.0041489 9.05390426 59.5169043 8.28818617 58.9914574 7.55396809 58.4345106 6.85125 57.8460638 6.16796809 57.2194149 5.51618617 56.567633 4.89556915 55.884016 4.30712234 55.175266 3.75017553 54.4410479 3.22506383 53.6753298 2.73748404 52.8905106 2.28810638 52.0802234 1.87693085 51.2451383 1.49725532 50.390617 1.16181383 49.5173298 0.864239362 48.6246064 0.611234043 47.7198191 0.40212766 46.7895638 0.237590426 45.8526064 0.117287234 44.896883 0.0479202128 43.9287606 0.0224521277 42.9666702 0.0479202128 42.0112819 0.117287234 41.0743245 0.237590426 40.1504362 0.40212766 39.2453138 0.611234043 38.3529255 0.864239362 37.4860053 1.16181383 36.631484 1.49725532 35.8024309 1.87693085 34.9988457 2.28810638 34.2140266 2.73748404 33.4543404 3.22506383 32.7201223 3.75017553 32.0113723 4.30712234 31.3341223 4.89556915 30.6823404 5.51618617 30.0620585 6.16796809 29.4736117 6.85125 28.9166649 7.55396809 28.3975851 8.28818617 27.9103404 9.05390426 27.4609628 9.83235638 27.0434202 10.6423085 26.6697766 11.4713617 26.3343351 12.319516 26.0434628 13.1931383 25.7901223 14.0788245 25.5813511 14.9839468 25.4168138 15.9018032 25.2965106 16.8384255 25.2268085 17.7877819 25.2016755 18.7498723 25.2268085 19.7179947 25.2965106 20.6737181 25.4168138 21.6103404 25.5813511 22.5405957 25.7901223 23.4457181 26.0434628 24.3381064 26.3343351 25.2113936 26.6697766 26.0659149 27.0434202 26.9013351 27.4609628 27.7112872 27.9103404 28.4961064 28.3975851 29.2621596 28.9166649 29.9960426 29.4736117 30.7047926 30.0620585 31.3884096 30.6823404 32.0405266 31.3341223 32.6668404 32.0113723 33.2556223 32.7201223 33.8125691 33.4543404 34.3376809 34.2140266 34.8249255 34.9988457 35.2806702 35.8024309 35.6921809 36.631484 36.0718564 37.4860053 36.4072979 38.3529255 36.7045372 39.2453138 36.9578777 40.1504362 37.1666489 41.0743245 37.3315213 42.0112819 37.4514894 42.9666702 37.5208564 43.9287606 37.5463245"></polyline>
                        <polyline id="Fill-3" fill="#D82332" points="18.8282872 37.5463245 19.7903777 37.5208564 20.7461011 37.4514894 21.6827234 37.3315213 22.6066117 37.1666489 23.511734 36.9578777 24.4041223 36.7045372 25.2710426 36.4072979 26.1255638 36.0718564 26.954617 35.6921809 27.7585372 35.2806702 28.5433564 34.8249255 29.3027074 34.3376809 30.0369255 33.8125691 30.7456755 33.2556223 31.4229255 32.6668404 32.0747074 32.0405266 32.6949894 31.3884096 33.2834362 30.7047926 33.840383 29.9960426 34.3594628 29.2621596 34.8467074 28.4961064 35.2960851 27.7112872 35.7139628 26.9013351 36.0872713 26.0659149 36.4227128 25.2113936 36.7139202 24.3381064 36.9669255 23.4457181 37.1756968 22.5405957 37.340234 21.6103404 37.4605372 20.6737181 37.5302394 19.7179947 37.5557074 18.7498723 37.5302394 17.7877819 37.4605372 16.8384255 37.340234 15.9018032 37.1756968 14.9839468 36.9669255 14.0788245 36.7139202 13.1931383 36.4227128 12.319516 36.0872713 11.4713617 35.7139628 10.6423085 35.2960851 9.83235638 34.8467074 9.05390426 34.3594628 8.28818617 33.840383 7.55396809 33.2834362 6.85125 32.6949894 6.16796809 32.0747074 5.51618617 31.4229255 4.89556915 30.7456755 4.30712234 30.0369255 3.75017553 29.3027074 3.22506383 28.5433564 2.73748404 27.7585372 2.28810638 26.954617 1.87693085 26.1255638 1.49725532 25.2710426 1.16181383 24.4041223 0.864239362 23.511734 0.611234043 22.6066117 0.40212766 21.6827234 0.237590426 20.7461011 0.117287234 19.7903777 0.0479202128 18.8282872 0.0224521277 17.8601649 0.0479202128 16.9044415 0.117287234 15.9678191 0.237590426 15.0372287 0.40212766 14.1324415 0.611234043 13.2400532 0.864239362 12.366766 1.16181383 11.5122447 1.49725532 10.6768245 1.87693085 9.86653723 2.28810638 9.08205319 2.73748404 8.316 3.22506383 7.58178191 3.75017553 6.87303191 4.30712234 6.18941489 4.89556915 5.53763298 5.51618617 4.91098404 6.16796809 4.32253723 6.85125 3.76559043 7.55396809 3.24047872 8.28818617 2.75289894 9.05390426 2.29715426 9.83235638 1.88597872 10.6423085 1.50630319 11.4713617 1.1708617 12.319516 0.873287234 13.1931383 0.620281915 14.0788245 0.411175532 14.9839468 0.246638298 15.9018032 0.126335106 16.8384255 0.0569680851 17.7877819 0.0315 18.7498723 0.0569680851 19.7179947 0.126335106 20.6737181 0.246638298 21.6103404 0.411175532 22.5405957 0.620281915 23.4457181 0.873287234 24.3381064 1.1708617 25.2113936 1.50630319 26.0659149 1.88597872 26.9013351 2.29715426 27.7112872 2.75289894 28.4961064 3.24047872 29.2621596 3.76559043 29.9960426 4.32253723 30.7047926 4.91098404 31.3884096 5.53763298 32.0405266 6.18941489 32.6668404 6.87303191 33.2556223 7.58178191 33.8125691 8.316 34.3376809 9.08205319 34.8249255 9.86653723 35.2806702 10.6768245 35.6921809 11.5122447 36.0718564 12.366766 36.4072979 13.2400532 36.7045372 14.1324415 36.9578777 15.0372287 37.1666489 15.9678191 37.3315213 16.9044415 37.4514894 17.8601649 37.5208564 18.8282872 37.5463245"></polyline>
                        <polyline id="Fill-4" fill="#F1AD3D" points="29.1824043 7.2185266 39.1504787 7.2185266 39.1504787 6.19946809 30.0432926 6.19946809 29.1824043 7.2185266"></polyline>
                        <polyline id="Fill-5" fill="#F1AD3D" points="27.6888351 9.48418085 39.1504787 9.48418085 39.1504787 8.46545745 28.290016 8.46545745 27.6888351 9.48418085"></polyline>
                        <polyline id="Fill-6" fill="#F1AD3D" points="26.5749415 11.7434681 39.1504787 11.7434681 39.1504787 10.7244096 27.0179521 10.7244096 26.5749415 11.7434681"></polyline>
                        <polyline id="Fill-7" fill="#F1AD3D" points="25.8092234 14.0091223 39.1504787 14.0091223 39.1504787 12.9903989 26.1255638 12.9903989 25.8092234 14.0091223"></polyline>
                        <polyline id="Fill-8" fill="#F1AD3D" points="26.252234 24.9583883 39.1819787 24.9583883 39.1819787 23.9393298 25.9358936 23.9393298 26.252234 24.9583883"></polyline>
                        <polyline id="Fill-9" fill="#F1AD3D" points="27.2079574 27.2240426 39.1819787 27.2240426 39.1819787 26.204984 26.7331117 26.204984 27.2079574 27.2240426"></polyline>
                        <polyline id="Fill-10" fill="#F1AD3D" points="28.5497234 29.4836649 39.1819787 29.4836649 39.1819787 28.4646064 27.9103404 28.4646064 28.5497234 29.4836649"></polyline>
                        <polyline id="Fill-11" fill="#F1AD3D" points="30.3975 31.7493191 39.1819787 31.7493191 39.1819787 30.7238936 29.5051117 30.7238936 30.3975 31.7493191"></polyline>
                        <polyline id="Fill-12" fill="#F1AD3D" points="25.3598457 16.2687447 39.1504787 16.2687447 39.1504787 15.2496862 25.555883 15.2496862 25.3598457 16.2687447"></polyline>
                        <polyline id="Fill-13" fill="#F1AD3D" points="33.7646489 22.698766 39.0238085 22.698766 39.0238085 21.6800426 33.9543191 21.6800426 33.7646489 22.698766"></polyline>
                        <polyline id="Fill-14" fill="#F1AD3D" points="34.1821915 20.4394787 39.0238085 20.4394787 39.0238085 19.4140532 34.3721968 19.4140532 34.1821915 20.4394787"></polyline>
                        <polyline id="Fill-15" fill="#F1AD3D" points="25.0116702 19.4140532 26.3789043 19.4140532 26.3789043 20.4394787 25.0750053 20.4394787 25.0116702 19.4140532"></polyline>
                        <polyline id="Fill-16" fill="#FFFFFE" points="22.4611755 18.1801915 22.3727074 18.1738245 22.2839043 18.1610904 22.2018032 18.1483564 22.119367 18.1359574 22.043633 18.1232234 21.9611968 18.1104894 21.8787606 18.0977553 21.7902926 18.0853564 21.7018245 18.0726223 21.6006223 18.0662553 21.4866862 18.0598883 21.366383 18.0535213 21.2333457 18.0535213 21.0879096 18.0598883 20.9233723 18.0726223 20.739734 18.0853564 20.6130638 18.1041223 20.4927606 18.1232234 20.3851915 18.1610904 20.2903564 18.1989574 20.2015532 18.2431915 20.1194521 18.2941277 20.056117 18.3574628 19.9991489 18.4140957 19.9612819 18.4837979 19.9294468 18.5535 19.9170479 18.6295691 19.9170479 18.7053032 19.9358138 18.7877394 19.9612819 18.8698404 20.011883 18.9522766 20.0752181 19.0343777 20.2015532 19.1546809 20.3536915 19.2498511 20.5309628 19.3319521 20.720633 19.4016543 20.9233723 19.4649894 21.1321436 19.5343564 21.3409149 19.6104255 21.5433191 19.6928617 21.7333245 19.8000957 21.9105957 19.933133 22.068766 20.0913032 22.2018032 20.2876755 22.3030053 20.5279468 22.3663404 20.8127872 22.3914734 21.1545957 22.3663404 21.5533723 22.3217713 21.8509468 22.2460372 22.1103191 22.1448351 22.3509255 22.0181649 22.5596968 21.8727287 22.7433351 21.7078564 22.9015053 21.5309202 23.0405745 21.3345479 23.1608777 21.1321436 23.2557128 20.9233723 23.3381489 20.7078989 23.401484 20.4867287 23.4520851 20.2712553 23.4899521 20.062484 23.5090532 19.8537128 23.5217872 19.6573404 23.5278191 19.385234 23.5278191 19.1322287 23.5217872 18.9107234 23.5217872 18.7019521 23.5150851 18.5119468 23.5090532 18.3410426 23.4963191 18.1892394 23.4835851 18.0434681 23.4648191 17.910766 23.4520851 17.7904628 23.426617 17.6701596 23.4078511 17.5625904 23.376016 17.4550213 23.350883 17.3538191 23.3126809 17.2522819 23.2748138 17.1450479 23.2369468 17.4295532 21.8382128 17.4868564 21.8509468 17.5562234 21.8697128 17.6446915 21.8951809 17.7525957 21.9203138 17.8665319 21.9457819 17.992867 21.97125 18.1322713 22.00275 18.2840745 22.0282181 18.4422447 22.0533511 18.6067819 22.0788191 18.7776862 22.0975851 18.9549574 22.1166862 19.1385957 22.1230532 19.3218989 22.1294202 19.5055372 22.1294202 19.6891755 22.1230532 19.8728138 22.0848511 20.01825 22.03425 20.1321862 21.964883 20.2206543 21.8760798 20.2839894 21.7876117 20.3345904 21.6864096 20.3664255 21.5852074 20.3915585 21.4900372 20.4042926 21.3063989 20.3473245 21.1482287 20.2397553 21.0218936 20.0815851 20.9143245 19.8915798 20.8191543 19.6700745 20.7243191 19.4231011 20.6358511 19.1764628 20.5343138 18.9234574 20.4207128 18.6828511 20.2876755 18.4613457 20.1231383 18.2589415 19.926766 18.1004362 19.6864947 17.9865 19.4016543 17.9295319 19.0598457 17.9358989 18.6547021 17.967734 18.4080638 18.0119681 18.1738245 18.0753032 17.9586862 18.1510372 17.7559468 18.2525745 17.5662766 18.3665106 17.4017394 18.4992128 17.2435691 18.6577181 17.1041649 18.8410213 16.9838617 19.0434255 16.8826596 19.2712979 16.7878245 19.5246383 16.7181223 19.8094787 16.6611543 20.1194521 16.6169202 20.4612606 16.5914521 20.8345691 16.5850851 21.0688085 16.5850851 21.2839468 16.5914521 21.4803191 16.5978191 21.6572553 16.6041862 21.8157606 16.6169202 21.9611968 16.6296543 22.087867 16.6420532 22.2018032 16.6547872 22.3093723 16.6675213 22.3978404 16.6866223 22.4802766 16.6993564 22.5560106 16.7117553 22.6193457 16.7244894 22.6763138 16.7308564 22.7332819 16.7435904 22.783883 16.7499574 22.4611755 18.1801915"></polyline>
                        <polyline id="Stroke-17" stroke="#FFFFFE" stroke-width="0.216" points="22.4611755 18.1801915 22.4611755 18.1801915 22.3727074 18.1738245 22.2839043 18.1610904 22.2018032 18.1483564 22.119367 18.1359574 22.043633 18.1232234 21.9611968 18.1104894 21.8787606 18.0977553 21.7902926 18.0853564 21.7018245 18.0726223 21.6006223 18.0662553 21.4866862 18.0598883 21.366383 18.0535213 21.2333457 18.0535213 21.0879096 18.0598883 20.9233723 18.0726223 20.739734 18.0853564 20.6130638 18.1041223 20.4927606 18.1232234 20.3851915 18.1610904 20.2903564 18.1989574 20.2015532 18.2431915 20.1194521 18.2941277 20.056117 18.3574628 19.9991489 18.4140957 19.9612819 18.4837979 19.9294468 18.5535 19.9170479 18.6295691 19.9170479 18.7053032 19.9358138 18.7877394 19.9612819 18.8698404 20.011883 18.9522766 20.0752181 19.0343777 20.2015532 19.1546809 20.3536915 19.2498511 20.5309628 19.3319521 20.720633 19.4016543 20.9233723 19.4649894 21.1321436 19.5343564 21.3409149 19.6104255 21.5433191 19.6928617 21.7333245 19.8000957 21.9105957 19.933133 22.068766 20.0913032 22.2018032 20.2876755 22.3030053 20.5279468 22.3663404 20.8127872 22.3914734 21.1545957 22.3663404 21.5533723 22.3217713 21.8509468 22.2460372 22.1103191 22.1448351 22.3509255 22.0181649 22.5596968 21.8727287 22.7433351 21.7078564 22.9015053 21.5309202 23.0405745 21.3345479 23.1608777 21.1321436 23.2557128 20.9233723 23.3381489 20.7078989 23.401484 20.4867287 23.4520851 20.2712553 23.4899521 20.062484 23.5090532 19.8537128 23.5217872 19.6573404 23.5278191 19.385234 23.5278191 19.1322287 23.5217872 18.9107234 23.5217872 18.7019521 23.5150851 18.5119468 23.5090532 18.3410426 23.4963191 18.1892394 23.4835851 18.0434681 23.4648191 17.910766 23.4520851 17.7904628 23.426617 17.6701596 23.4078511 17.5625904 23.376016 17.4550213 23.350883 17.3538191 23.3126809 17.2522819 23.2748138 17.1450479 23.2369468 17.4295532 21.8382128 17.4868564 21.8509468 17.5562234 21.8697128 17.6446915 21.8951809 17.7525957 21.9203138 17.8665319 21.9457819 17.992867 21.97125 18.1322713 22.00275 18.2840745 22.0282181 18.4422447 22.0533511 18.6067819 22.0788191 18.7776862 22.0975851 18.9549574 22.1166862 19.1385957 22.1230532 19.3218989 22.1294202 19.5055372 22.1294202 19.6891755 22.1230532 19.8728138 22.0848511 20.01825 22.03425 20.1321862 21.964883 20.2206543 21.8760798 20.2839894 21.7876117 20.3345904 21.6864096 20.3664255 21.5852074 20.3915585 21.4900372 20.4042926 21.3063989 20.3473245 21.1482287 20.2397553 21.0218936 20.0815851 20.9143245 19.8915798 20.8191543 19.6700745 20.7243191 19.4231011 20.6358511 19.1764628 20.5343138 18.9234574 20.4207128 18.6828511 20.2876755 18.4613457 20.1231383 18.2589415 19.926766 18.1004362 19.6864947 17.9865 19.4016543 17.9295319 19.0598457 17.9358989 18.6547021 17.967734 18.4080638 18.0119681 18.1738245 18.0753032 17.9586862 18.1510372 17.7559468 18.2525745 17.5662766 18.3665106 17.4017394 18.4992128 17.2435691 18.6577181 17.1041649 18.8410213 16.9838617 19.0434255 16.8826596 19.2712979 16.7878245 19.5246383 16.7181223 19.8094787 16.6611543 20.1194521 16.6169202 20.4612606 16.5914521 20.8345691 16.5850851 21.0688085 16.5850851 21.2839468 16.5914521 21.4803191 16.5978191 21.6572553 16.6041862 21.8157606 16.6169202 21.9611968 16.6296543 22.087867 16.6420532 22.2018032 16.6547872 22.3093723 16.6675213 22.3978404 16.6866223 22.4802766 16.6993564 22.5560106 16.7117553 22.6193457 16.7244894 22.6763138 16.7308564 22.7332819 16.7435904 22.783883 16.7499574 22.4611755 18.1801915"></polyline>
                        <polyline id="Fill-18" fill="#FFFFFE" points="23.9611117 15.1866862 25.7143883 15.1866862 25.4546809 16.7181223 26.5116064 16.7181223 26.283734 18.1483564 25.1698404 18.1168564 24.5622926 21.6482074 24.5559255 21.7748777 24.5877606 21.8824468 24.6510957 21.964883 24.7331968 22.03425 24.847133 22.0788191 24.9738032 22.1166862 25.1128723 22.1418191 25.2646755 22.1545532 25.4040798 22.1481862 25.53075 22.1354521 25.6446862 22.1166862 25.7458883 22.0912181 25.8279894 22.0660851 25.8849574 22.046984 25.9231596 22.03425 25.9358936 22.0282181 25.7143883 23.2051117 25.6698191 23.2369468 25.5813511 23.2875479 25.537117 23.3126809 25.4925479 23.3317819 25.4422819 23.350883 25.3849787 23.369984 25.3283457 23.38875 25.2646755 23.4078511 25.2016755 23.4205851 25.1256064 23.432984 25.0498723 23.4457181 24.9674362 23.4584521 24.8726011 23.4711862 24.7713989 23.4835851 24.6634947 23.4963191 24.182617 23.4963191 23.9296117 23.4772181 23.7077713 23.4520851 23.505367 23.4142181 23.3344628 23.369984 23.1890266 23.3126809 23.0687234 23.2496809 22.9611543 23.1736117 22.8787181 23.0911755 22.8157181 23.0027074 22.7711489 22.8951383 22.7396489 22.7875691 22.7205479 22.667266 22.7141809 22.5342287 22.7141809 22.3951596 22.7332819 22.2497234 22.752383 22.0912181 23.9611117 15.1866862"></polyline>
                        <polyline id="Stroke-19" stroke="#FFFFFE" stroke-width="0.216" points="23.9611117 15.1866862 25.7143883 15.1866862 25.4546809 16.7181223 26.5116064 16.7181223 26.283734 18.1483564 25.1698404 18.1168564 24.5622926 21.6482074 24.5559255 21.7748777 24.5877606 21.8824468 24.6510957 21.964883 24.7331968 22.03425 24.847133 22.0788191 24.9738032 22.1166862 25.1128723 22.1418191 25.2646755 22.1545532 25.4040798 22.1481862 25.53075 22.1354521 25.6446862 22.1166862 25.7458883 22.0912181 25.8279894 22.0660851 25.8849574 22.046984 25.9231596 22.03425 25.9358936 22.0282181 25.7143883 23.2051117 25.6698191 23.2369468 25.5813511 23.2875479 25.537117 23.3126809 25.4925479 23.3317819 25.4422819 23.350883 25.3849787 23.369984 25.3283457 23.38875 25.2646755 23.4078511 25.2016755 23.4205851 25.1256064 23.432984 25.0498723 23.4457181 24.9674362 23.4584521 24.8726011 23.4711862 24.7713989 23.4835851 24.6634947 23.4963191 24.182617 23.4963191 23.9296117 23.4772181 23.7077713 23.4520851 23.505367 23.4142181 23.3344628 23.369984 23.1890266 23.3126809 23.0687234 23.2496809 22.9611543 23.1736117 22.8787181 23.0911755 22.8157181 23.0027074 22.7711489 22.8951383 22.7396489 22.7875691 22.7205479 22.667266 22.7141809 22.5342287 22.7141809 22.3951596 22.7332819 22.2497234 22.752383 22.0912181 23.9611117 15.1866862"></polyline>
                        <polyline id="Fill-20" fill="#FFFFFE" points="27.9103404 20.5343138 27.8912394 20.6422181 27.8852074 20.7558191 27.8976064 20.8761223 27.9230745 20.9964255 27.9673085 21.1167287 28.0179096 21.2306649 28.0876117 21.3509681 28.1633457 21.4585372 28.2521489 21.5661064 28.346984 21.6609415 28.4485213 21.7557766 28.5621223 21.8318457 28.6760585 21.9015479 28.8027287 21.958516 28.9293989 22.00275 29.0560691 22.0282181 29.2202713 22.0533511 29.3787766 22.0724521 29.5433138 22.0912181 29.7078511 22.1039521 29.8723883 22.1103191 30.0432926 22.1103191 30.2078298 22.1039521 30.378734 22.0912181 30.5496383 22.0660851 30.7202074 22.03425 30.8974787 21.996383 31.068383 21.9394149 31.2456543 21.8697128 31.4292926 21.7939787 31.6065638 21.6927766 31.789867 21.5852074 31.5368617 23.1417766 31.3341223 23.2433138 31.2329202 23.2811809 31.1380851 23.3190479 31.04325 23.350883 30.9417128 23.382383 30.8408457 23.4078511 30.7329415 23.426617 30.6190053 23.4457181 30.4926702 23.4584521 30.359633 23.4711862 30.2138617 23.4835851 30.0496596 23.4899521 29.8787553 23.4899521 29.682383 23.4963191 29.4736117 23.4963191 29.1633032 23.4899521 28.8469628 23.4584521 28.5306223 23.4142181 28.2139468 23.3381489 27.9039734 23.2433138 27.6063989 23.1230106 27.3218936 22.9648404 27.0558191 22.7812021 26.8091809 22.5660638 26.5940426 22.3063564 26.4104043 22.015484 26.2586011 21.6800426 26.1510319 21.3063989 26.0813298 20.8824894 26.0622287 20.4143457 26.0940638 19.895266 26.1191968 19.6928617 26.1573989 19.4586223 26.208 19.2116489 26.277367 18.9459096 26.3725372 18.6738032 26.4864734 18.4016968 26.6319096 18.1232234 26.8091809 17.857484 27.0115851 17.6041436 27.2585585 17.3635372 27.5370319 17.1483989 27.8533723 16.9587287 28.2203138 16.8005585 28.6318245 16.6866223 29.0875691 16.6105532 29.6002819 16.5850851 29.8469202 16.5914521 30.1066277 16.6169202 30.366 16.6611543 30.6253723 16.7244894 30.8787128 16.8193245 31.1253511 16.9332606 31.3532234 17.0850638 31.5619947 17.2623351 31.752 17.4774734 31.9101702 17.7308138 32.0368404 18.0220213 32.1253085 18.3574628 32.1759096 18.7371383 32.1822766 19.1674149 32.1380426 19.6482926 32.0432074 20.1801064 32.0113723 20.5661489 27.3976277 20.5661489 27.6888351 19.3192181 30.4608351 19.3192181 30.4735691 19.1610479 30.4672021 19.0092447 30.4544681 18.8698404 30.4293351 18.7435053 30.384766 18.6232021 30.3405319 18.515633 30.2775319 18.4204628 30.2138617 18.3319947 30.1381277 18.2559255 30.0560266 18.1925904 29.9608564 18.1359574 29.8660213 18.0853564 29.7648191 18.0471543 29.663617 18.0220213 29.5557128 18.0029202 29.4421117 17.9901862 29.3218085 17.9965532 29.2078723 18.0156543 29.1003032 18.0407872 28.9923989 18.0789894 28.8851649 18.1295904 28.7899947 18.1865585 28.6951596 18.2559255 28.6127234 18.3319947 28.5306223 18.4204628 28.4545532 18.515633 28.3848511 18.6168351 28.3282181 18.7244043 28.27125 18.8383404 28.2266809 18.9650106 28.1888138 19.0913457 28.1633457 19.224383 27.9103404 20.5343138"></polyline>
                        <polyline id="Stroke-21" stroke="#FFFFFE" stroke-width="0.216" points="27.9103404 20.5343138 27.9103404 20.5343138 27.8912394 20.6422181 27.8852074 20.7558191 27.8976064 20.8761223 27.9230745 20.9964255 27.9673085 21.1167287 28.0179096 21.2306649 28.0876117 21.3509681 28.1633457 21.4585372 28.2521489 21.5661064 28.346984 21.6609415 28.4485213 21.7557766 28.5621223 21.8318457 28.6760585 21.9015479 28.8027287 21.958516 28.9293989 22.00275 29.0560691 22.0282181 29.2202713 22.0533511 29.3787766 22.0724521 29.5433138 22.0912181 29.7078511 22.1039521 29.8723883 22.1103191 30.0432926 22.1103191 30.2078298 22.1039521 30.378734 22.0912181 30.5496383 22.0660851 30.7202074 22.03425 30.8974787 21.996383 31.068383 21.9394149 31.2456543 21.8697128 31.4292926 21.7939787 31.6065638 21.6927766 31.789867 21.5852074 31.5368617 23.1417766 31.3341223 23.2433138 31.2329202 23.2811809 31.1380851 23.3190479 31.04325 23.350883 30.9417128 23.382383 30.8408457 23.4078511 30.7329415 23.426617 30.6190053 23.4457181 30.4926702 23.4584521 30.359633 23.4711862 30.2138617 23.4835851 30.0496596 23.4899521 29.8787553 23.4899521 29.682383 23.4963191 29.4736117 23.4963191 29.1633032 23.4899521 28.8469628 23.4584521 28.5306223 23.4142181 28.2139468 23.3381489 27.9039734 23.2433138 27.6063989 23.1230106 27.3218936 22.9648404 27.0558191 22.7812021 26.8091809 22.5660638 26.5940426 22.3063564 26.4104043 22.015484 26.2586011 21.6800426 26.1510319 21.3063989 26.0813298 20.8824894 26.0622287 20.4143457 26.0940638 19.895266 26.1191968 19.6928617 26.1573989 19.4586223 26.208 19.2116489 26.277367 18.9459096 26.3725372 18.6738032 26.4864734 18.4016968 26.6319096 18.1232234 26.8091809 17.857484 27.0115851 17.6041436 27.2585585 17.3635372 27.5370319 17.1483989 27.8533723 16.9587287 28.2203138 16.8005585 28.6318245 16.6866223 29.0875691 16.6105532 29.6002819 16.5850851 29.8469202 16.5914521 30.1066277 16.6169202 30.366 16.6611543 30.6253723 16.7244894 30.8787128 16.8193245 31.1253511 16.9332606 31.3532234 17.0850638 31.5619947 17.2623351 31.752 17.4774734 31.9101702 17.7308138 32.0368404 18.0220213 32.1253085 18.3574628 32.1759096 18.7371383 32.1822766 19.1674149 32.1380426 19.6482926 32.0432074 20.1801064 32.0113723 20.5661489 27.3976277 20.5661489 27.6888351 19.3192181 30.4608351 19.3192181 30.4735691 19.1610479 30.4672021 19.0092447 30.4544681 18.8698404 30.4293351 18.7435053 30.384766 18.6232021 30.3405319 18.515633 30.2775319 18.4204628 30.2138617 18.3319947 30.1381277 18.2559255 30.0560266 18.1925904 29.9608564 18.1359574 29.8660213 18.0853564 29.7648191 18.0471543 29.663617 18.0220213 29.5557128 18.0029202 29.4421117 17.9901862 29.3218085 17.9965532 29.2078723 18.0156543 29.1003032 18.0407872 28.9923989 18.0789894 28.8851649 18.1295904 28.7899947 18.1865585 28.6951596 18.2559255 28.6127234 18.3319947 28.5306223 18.4204628 28.4545532 18.515633 28.3848511 18.6168351 28.3282181 18.7244043 28.27125 18.8383404 28.2266809 18.9650106 28.1888138 19.0913457 28.1633457 19.224383 27.9103404 20.5343138"></polyline>
                        <polyline id="Fill-22" fill="#FFFFFE" points="43.0048723 17.0977979 42.9224362 17.0535638 42.8403351 17.0156968 42.7515319 16.9714628 42.6566968 16.9268936 42.5618617 16.8890266 42.4542926 16.8511596 42.3463883 16.8129574 42.2327872 16.7750904 42.112484 16.7435904 41.9921809 16.7181223 41.8591436 16.6929894 41.7264415 16.6738883 41.5806702 16.6611543 41.435234 16.6484202 40.9667553 16.6484202 40.8022181 16.6611543 40.6313138 16.6802553 40.4543777 16.7117553 40.2771064 16.7623564 40.0998351 16.8320585 39.9225638 16.9208617 39.7452926 17.0344628 39.5743883 17.173867 39.4098511 17.3384043 39.2516809 17.5408085 39.0998777 17.7750479 38.9604734 18.0535213 38.8277713 18.3698617 38.7074681 18.7244043 38.606266 19.1295479 38.5680638 19.3570851 38.5429309 19.5785904 38.5301968 19.8000957 38.5365638 20.0155691 38.5556649 20.2307074 38.5998989 20.4331117 38.656867 20.623117 38.7265691 20.8127872 38.8214043 20.9836915 38.9353404 21.1482287 39.0680426 21.294 39.2201809 21.4267021 39.39075 21.5406383 39.5871223 21.6358085 39.8022606 21.7179096 40.042867 21.7748777 40.1249681 21.7939787 40.2201383 21.8130798 40.3340745 21.8254787 40.4604096 21.8382128 40.5998138 21.8509468 40.9034202 21.8509468 41.0619255 21.8382128 41.2264628 21.8191117 41.391 21.7876117 41.5491702 21.7433777 41.7073404 21.6927766 41.8655106 21.6230745 42.0112819 21.5406383 42.143984 21.4394362 42.2706543 21.3255 41.9858138 23.0154415 41.9476117 23.0469415 41.9097447 23.0848085 41.8591436 23.1293777 41.8021755 23.1672447 41.7324734 23.2178457 41.6440053 23.2620798 41.5428032 23.3063138 41.428867 23.344516 41.2834309 23.38875 41.1185585 23.4205851 40.9288883 23.4457181 40.707383 23.4711862 40.4604096 23.4835851 40.1755691 23.4899521 39.8528617 23.4835851 39.4986543 23.4648191 39.2074468 23.432984 38.9162394 23.369984 38.6250319 23.2748138 38.3341596 23.1481436 38.0556862 22.9963404 37.7896117 22.8066702 37.5366064 22.5851649 37.302367 22.3318245 37.0935957 22.046984 36.9163245 21.7306436 36.7645213 21.3761011 36.6505851 20.9900585 36.574516 20.5661489 36.549383 20.1167713 36.5617819 19.6231596 36.631484 19.0977128 36.6820851 18.8383404 36.7390532 18.585 36.8023883 18.3383617 36.8657234 18.1041223 36.9354255 17.882617 37.0175266 17.6611117 37.0999628 17.4523404 37.1884309 17.2559681 37.2836011 17.0599309 37.3784362 16.8762926 37.4860053 16.6993564 37.5999415 16.534484 37.7138777 16.3763138 37.8402128 16.2245106 37.966883 16.0851064 38.0999202 15.9524043 38.2453564 15.825734 38.3907926 15.7054309 38.5429309 15.5978617 38.7011011 15.4966596 38.8720053 15.4018245 39.0429096 15.3193883 39.2201809 15.2436543 39.403484 15.1739521 39.5998564 15.110617 39.7958936 15.060016 39.998633 15.0157819 40.2137713 14.9775798 40.4289096 14.9460798 40.6567819 14.9206117 40.8846543 14.9078777 41.1249255 14.9018457 41.3276649 14.9078777 41.5237021 14.9206117 41.7137074 14.9397128 41.9033777 14.9651809 42.0806489 14.9903138 42.2515532 15.0281809 42.4160904 15.060016 42.5682287 15.097883 42.7136649 15.1360851 42.8403351 15.1739521 42.9603032 15.2118191 43.0618404 15.2496862 43.1503085 15.2815213 43.2263777 15.3069894 43.2833457 15.3321223 43.3212128 15.3448564 43.0048723 17.0977979"></polyline>
                        <polyline id="Stroke-23" stroke="#FFFFFE" stroke-width="0.216" points="43.0048723 17.0977979 43.0048723 17.0977979 42.9224362 17.0535638 42.8403351 17.0156968 42.7515319 16.9714628 42.6566968 16.9268936 42.5618617 16.8890266 42.4542926 16.8511596 42.3463883 16.8129574 42.2327872 16.7750904 42.112484 16.7435904 41.9921809 16.7181223 41.8591436 16.6929894 41.7264415 16.6738883 41.5806702 16.6611543 41.435234 16.6484202 40.9667553 16.6484202 40.8022181 16.6611543 40.6313138 16.6802553 40.4543777 16.7117553 40.2771064 16.7623564 40.0998351 16.8320585 39.9225638 16.9208617 39.7452926 17.0344628 39.5743883 17.173867 39.4098511 17.3384043 39.2516809 17.5408085 39.0998777 17.7750479 38.9604734 18.0535213 38.8277713 18.3698617 38.7074681 18.7244043 38.606266 19.1295479 38.5680638 19.3570851 38.5429309 19.5785904 38.5301968 19.8000957 38.5365638 20.0155691 38.5556649 20.2307074 38.5998989 20.4331117 38.656867 20.623117 38.7265691 20.8127872 38.8214043 20.9836915 38.9353404 21.1482287 39.0680426 21.294 39.2201809 21.4267021 39.39075 21.5406383 39.5871223 21.6358085 39.8022606 21.7179096 40.042867 21.7748777 40.1249681 21.7939787 40.2201383 21.8130798 40.3340745 21.8254787 40.4604096 21.8382128 40.5998138 21.8509468 40.9034202 21.8509468 41.0619255 21.8382128 41.2264628 21.8191117 41.391 21.7876117 41.5491702 21.7433777 41.7073404 21.6927766 41.8655106 21.6230745 42.0112819 21.5406383 42.143984 21.4394362 42.2706543 21.3255 41.9858138 23.0154415 41.9476117 23.0469415 41.9097447 23.0848085 41.8591436 23.1293777 41.8021755 23.1672447 41.7324734 23.2178457 41.6440053 23.2620798 41.5428032 23.3063138 41.428867 23.344516 41.2834309 23.38875 41.1185585 23.4205851 40.9288883 23.4457181 40.707383 23.4711862 40.4604096 23.4835851 40.1755691 23.4899521 39.8528617 23.4835851 39.4986543 23.4648191 39.2074468 23.432984 38.9162394 23.369984 38.6250319 23.2748138 38.3341596 23.1481436 38.0556862 22.9963404 37.7896117 22.8066702 37.5366064 22.5851649 37.302367 22.3318245 37.0935957 22.046984 36.9163245 21.7306436 36.7645213 21.3761011 36.6505851 20.9900585 36.574516 20.5661489 36.549383 20.1167713 36.5617819 19.6231596 36.631484 19.0977128 36.6820851 18.8383404 36.7390532 18.585 36.8023883 18.3383617 36.8657234 18.1041223 36.9354255 17.882617 37.0175266 17.6611117 37.0999628 17.4523404 37.1884309 17.2559681 37.2836011 17.0599309 37.3784362 16.8762926 37.4860053 16.6993564 37.5999415 16.534484 37.7138777 16.3763138 37.8402128 16.2245106 37.966883 16.0851064 38.0999202 15.9524043 38.2453564 15.825734 38.3907926 15.7054309 38.5429309 15.5978617 38.7011011 15.4966596 38.8720053 15.4018245 39.0429096 15.3193883 39.2201809 15.2436543 39.403484 15.1739521 39.5998564 15.110617 39.7958936 15.060016 39.998633 15.0157819 40.2137713 14.9775798 40.4289096 14.9460798 40.6567819 14.9206117 40.8846543 14.9078777 41.1249255 14.9018457 41.3276649 14.9078777 41.5237021 14.9206117 41.7137074 14.9397128 41.9033777 14.9651809 42.0806489 14.9903138 42.2515532 15.0281809 42.4160904 15.060016 42.5682287 15.097883 42.7136649 15.1360851 42.8403351 15.1739521 42.9603032 15.2118191 43.0618404 15.2496862 43.1503085 15.2815213 43.2263777 15.3069894 43.2833457 15.3321223 43.3212128 15.3448564 43.0048723 17.0977979"></polyline>
                        <polyline id="Fill-24" fill="#FFFFFE" points="58.5863138 23.4963191 56.8333723 23.4963191 56.9600426 22.7939362 56.9600426 22.7306011 56.8585053 22.8569362 56.7512713 22.9712074 56.643367 23.0724096 56.529766 23.1608777 56.4154947 23.2433138 56.3018936 23.3126809 56.1879574 23.369984 56.0676543 23.426617 55.9473511 23.4711862 55.8270479 23.5026862 55.7067447 23.5341862 55.5804096 23.5532872 55.4537394 23.5723883 55.3334362 23.5847872 55.206766 23.5914894 55.0800957 23.5914894 54.7513564 23.5660213 54.4474149 23.4963191 54.1689415 23.38875 53.9156011 23.2433138 53.6877287 23.0596755 53.4853245 22.8445372 53.3080532 22.6102979 53.15625 22.3445585 53.0295798 22.0597181 52.9283777 21.7621436 52.8586755 21.4521702 52.8080745 21.1294628 52.7893085 20.8067553 52.7956755 20.4773457 52.8271755 20.1546383 52.8841436 19.8319309 52.9789787 19.4586223 53.0929149 19.1040798 53.2259521 18.7813723 53.3841223 18.477766 53.5486596 18.1925904 53.7386649 17.9395851 53.9347021 17.7117128 54.1434734 17.5029415 54.3653138 17.3193032 54.5992181 17.161133 54.8398245 17.0220638 55.0800957 16.9144947 55.3334362 16.8256915 55.5864415 16.7687234 55.8397819 16.7308564 56.0991543 16.7181223 56.2827926 16.7244894 56.4600638 16.7435904 56.6246011 16.7750904 56.7764043 16.8193245 56.9221755 16.8699255 57.0485106 16.9268936 57.1751809 16.9965957 57.289117 17.0662979 57.3903191 17.1420319 57.4851543 17.2244681 57.5675904 17.3069043 57.6433245 17.3890053 57.7066596 17.4711064 57.7636277 17.5535426 57.8142287 17.6296117 57.8524309 17.7053457 58.2954415 15.2181862 60.016883 15.2181862 58.5863138 23.4963191"></polyline>
                        <polyline id="Stroke-25" stroke="#FFFFFE" stroke-width="0.216" points="58.5863138 23.4963191 56.8333723 23.4963191 56.9600426 22.7939362 56.9600426 22.7306011 56.8585053 22.8569362 56.7512713 22.9712074 56.643367 23.0724096 56.529766 23.1608777 56.4154947 23.2433138 56.3018936 23.3126809 56.1879574 23.369984 56.0676543 23.426617 55.9473511 23.4711862 55.8270479 23.5026862 55.7067447 23.5341862 55.5804096 23.5532872 55.4537394 23.5723883 55.3334362 23.5847872 55.206766 23.5914894 55.0800957 23.5914894 54.7513564 23.5660213 54.4474149 23.4963191 54.1689415 23.38875 53.9156011 23.2433138 53.6877287 23.0596755 53.4853245 22.8445372 53.3080532 22.6102979 53.15625 22.3445585 53.0295798 22.0597181 52.9283777 21.7621436 52.8586755 21.4521702 52.8080745 21.1294628 52.7893085 20.8067553 52.7956755 20.4773457 52.8271755 20.1546383 52.8841436 19.8319309 52.9789787 19.4586223 53.0929149 19.1040798 53.2259521 18.7813723 53.3841223 18.477766 53.5486596 18.1925904 53.7386649 17.9395851 53.9347021 17.7117128 54.1434734 17.5029415 54.3653138 17.3193032 54.5992181 17.161133 54.8398245 17.0220638 55.0800957 16.9144947 55.3334362 16.8256915 55.5864415 16.7687234 55.8397819 16.7308564 56.0991543 16.7181223 56.2827926 16.7244894 56.4600638 16.7435904 56.6246011 16.7750904 56.7764043 16.8193245 56.9221755 16.8699255 57.0485106 16.9268936 57.1751809 16.9965957 57.289117 17.0662979 57.3903191 17.1420319 57.4851543 17.2244681 57.5675904 17.3069043 57.6433245 17.3890053 57.7066596 17.4711064 57.7636277 17.5535426 57.8142287 17.6296117 57.8524309 17.7053457 58.2954415 15.2181862 60.016883 15.2181862 58.5863138 23.4963191"></polyline>
                        <polyline id="Fill-26" fill="#F1AD3D" points="55.7194787 21.964883 55.89675 21.9521489 56.0612872 21.9142819 56.2130904 21.8697128 56.3588617 21.8003457 56.4915638 21.7242766 56.618234 21.6294415 56.7385372 21.5218723 56.8461064 21.4079362 56.9409415 21.281266 57.0294096 21.1418617 57.1118457 20.9964255 57.1815479 20.8446223 57.244883 20.6864521 57.295484 20.5219149 57.3397181 20.3510106 57.3712181 20.1801064 57.4030532 20.0028351 57.4218191 19.8191968 57.4218191 19.6482926 57.4154521 19.4713564 57.3966862 19.306484 57.3712181 19.1483138 57.326984 18.9965106 57.276383 18.8510745 57.2130479 18.7244043 57.1373138 18.6041011 57.0548777 18.5028989 56.9600426 18.4140957 56.8524734 18.3383617 56.7385372 18.2877606 56.618234 18.2559255 56.4851968 18.2431915 56.3142926 18.2559255 56.1564574 18.2813936 56.0106862 18.3319947 55.8649149 18.3953298 55.7385798 18.477766 55.6119096 18.5789681 55.5043404 18.6865372 55.3967713 18.8065053 55.3016011 18.9459096 55.213133 19.0913457 55.1310319 19.243484 55.0613298 19.4080213 54.9979947 19.5785904 54.9473936 19.7494947 54.8967926 19.933133 54.8589255 20.1167713 54.8270904 20.3952447 54.8398245 20.6988511 54.8840585 21.0091596 54.9664947 21.3063989 55.0928298 21.5661064 55.257367 21.7748777 55.4664734 21.9142819 55.7194787 21.964883"></polyline>
                        <polyline id="Fill-27" fill="#FFFFFE" points="16.8538404 22.0912181 16.6005 23.4963191 15.0057287 23.4963191 15.0499628 23.2369468 15.0817979 23.0027074 15.1069309 22.8254362 15.1323989 22.7306011 15.0435957 22.8318032 14.9423936 22.9330053 14.8224255 23.0281755 14.6893883 23.1166436 14.53725 23.2051117 14.3790798 23.2811809 14.2145426 23.35725 14.0436383 23.4205851 13.8603351 23.4772181 13.6766968 23.5217872 13.4930585 23.5596543 13.3033883 23.5847872 13.11975 23.5975213 12.9361117 23.6038883 12.7588404 23.5847872 12.5882713 23.5596543 12.366766 23.5026862 12.1640266 23.4393511 11.9867553 23.35725 11.8285851 23.2620798 11.689516 23.1608777 11.5628457 23.0469415 11.4616436 22.9266383 11.3728404 22.8003032 11.2971064 22.667266 11.2337713 22.5278617 11.1831702 22.3887926 11.1449681 22.2497234 11.1198351 22.1039521 11.100734 21.958516 11.088 21.8191117 11.088 21.6800426 11.1071011 21.4330691 11.1449681 21.1988298 11.2083032 20.9773245 11.2907394 20.7621862 11.3919415 20.5597819 11.5058777 20.3761436 11.6389149 20.1988723 11.7907181 20.0407021 11.9488883 19.895266 12.1261596 19.7622287 12.3094628 19.6422606 12.4994681 19.5407234 12.7018723 19.4522553 12.9109787 19.3825532 13.126117 19.3255851 13.3476223 19.2877181 13.3603564 19.2877181 13.3918564 19.2813511 13.4364255 19.274984 13.5057926 19.268617 13.5818617 19.255883 13.6703298 19.2498511 13.7651649 19.237117 13.872734 19.224383 13.9806383 19.2116489 14.0878723 19.1989149 14.2021436 19.1925479 14.3033457 19.1801489 14.4045479 19.1737819 14.499383 19.1674149 14.5881862 19.1610479 14.8033245 19.1610479 14.9551277 19.1674149 15.0941968 19.1737819 15.2336011 19.1737819 15.3475372 19.1801489 15.4360053 19.186516 15.4993404 19.1925479 15.5184415 19.1925479 15.5311755 19.1483138 15.5690426 19.0343777 15.6005426 18.9016755 15.6132766 18.7813723 15.5881436 18.6423032 15.5311755 18.515633 15.4551064 18.4016968 15.3539043 18.3068617 15.2336011 18.2244255 15.1005638 18.1674574 14.9487606 18.1295904 14.7842234 18.1168564 14.6069521 18.1104894 14.4172819 18.1041223 14.2209096 18.1041223 14.0185053 18.1104894 13.809734 18.1232234 13.6069947 18.1419894 13.4045904 18.1610904 13.2082181 18.1865585 13.0185479 18.2116915 12.8349096 18.2431915 12.6703723 18.2750266 12.5185691 18.3068617 12.3791649 18.3447287 12.2652287 18.3825957 12.1767606 18.4268298 12.1070585 18.4650319 12.5564362 16.9396277 12.6955053 16.8826596 12.8349096 16.8320585 12.9867128 16.7878245 13.2906543 16.7244894 13.4551915 16.6993564 13.6197287 16.6738883 13.790633 16.6611543 13.9679043 16.6484202 14.1512074 16.6420532 14.3412128 16.6356862 14.9487606 16.6356862 15.170266 16.6420532 15.3917713 16.6484202 15.5690426 16.6611543 15.7590479 16.6929894 15.9550851 16.7372234 16.1574894 16.7941915 16.3538617 16.8699255 16.5435319 16.9587287 16.7335372 17.0662979 16.9108085 17.1866011 17.0689787 17.3256702 17.2080479 17.4774734 17.3347181 17.6483777 17.4295532 17.838383 17.4928883 18.0407872 17.5310904 18.2559255 17.5310904 18.4965319 17.4928883 18.7498723 16.8538404 22.0912181"></polyline>
                        <polyline id="Stroke-28" stroke="#FFFFFE" stroke-width="0.216" points="16.8538404 22.0912181 16.6005 23.4963191 15.0057287 23.4963191 15.0499628 23.2369468 15.0817979 23.0027074 15.1069309 22.8254362 15.1323989 22.7306011 15.0435957 22.8318032 14.9423936 22.9330053 14.8224255 23.0281755 14.6893883 23.1166436 14.53725 23.2051117 14.3790798 23.2811809 14.2145426 23.35725 14.0436383 23.4205851 13.8603351 23.4772181 13.6766968 23.5217872 13.4930585 23.5596543 13.3033883 23.5847872 13.11975 23.5975213 12.9361117 23.6038883 12.7588404 23.5847872 12.5882713 23.5596543 12.366766 23.5026862 12.1640266 23.4393511 11.9867553 23.35725 11.8285851 23.2620798 11.689516 23.1608777 11.5628457 23.0469415 11.4616436 22.9266383 11.3728404 22.8003032 11.2971064 22.667266 11.2337713 22.5278617 11.1831702 22.3887926 11.1449681 22.2497234 11.1198351 22.1039521 11.100734 21.958516 11.088 21.8191117 11.088 21.6800426 11.1071011 21.4330691 11.1449681 21.1988298 11.2083032 20.9773245 11.2907394 20.7621862 11.3919415 20.5597819 11.5058777 20.3761436 11.6389149 20.1988723 11.7907181 20.0407021 11.9488883 19.895266 12.1261596 19.7622287 12.3094628 19.6422606 12.4994681 19.5407234 12.7018723 19.4522553 12.9109787 19.3825532 13.126117 19.3255851 13.3476223 19.2877181 13.3603564 19.2877181 13.3918564 19.2813511 13.4364255 19.274984 13.5057926 19.268617 13.5818617 19.255883 13.6703298 19.2498511 13.7651649 19.237117 13.872734 19.224383 13.9806383 19.2116489 14.0878723 19.1989149 14.2021436 19.1925479 14.3033457 19.1801489 14.4045479 19.1737819 14.499383 19.1674149 14.5881862 19.1610479 14.8033245 19.1610479 14.9551277 19.1674149 15.0941968 19.1737819 15.2336011 19.1737819 15.3475372 19.1801489 15.4360053 19.186516 15.4993404 19.1925479 15.5184415 19.1925479 15.5311755 19.1483138 15.5690426 19.0343777 15.6005426 18.9016755 15.6132766 18.7813723 15.5881436 18.6423032 15.5311755 18.515633 15.4551064 18.4016968 15.3539043 18.3068617 15.2336011 18.2244255 15.1005638 18.1674574 14.9487606 18.1295904 14.7842234 18.1168564 14.6069521 18.1104894 14.4172819 18.1041223 14.2209096 18.1041223 14.0185053 18.1104894 13.809734 18.1232234 13.6069947 18.1419894 13.4045904 18.1610904 13.2082181 18.1865585 13.0185479 18.2116915 12.8349096 18.2431915 12.6703723 18.2750266 12.5185691 18.3068617 12.3791649 18.3447287 12.2652287 18.3825957 12.1767606 18.4268298 12.1070585 18.4650319 12.5564362 16.9396277 12.6955053 16.8826596 12.8349096 16.8320585 12.9867128 16.7878245 13.2906543 16.7244894 13.4551915 16.6993564 13.6197287 16.6738883 13.790633 16.6611543 13.9679043 16.6484202 14.1512074 16.6420532 14.3412128 16.6356862 14.9487606 16.6356862 15.170266 16.6420532 15.3917713 16.6484202 15.5690426 16.6611543 15.7590479 16.6929894 15.9550851 16.7372234 16.1574894 16.7941915 16.3538617 16.8699255 16.5435319 16.9587287 16.7335372 17.0662979 16.9108085 17.1866011 17.0689787 17.3256702 17.2080479 17.4774734 17.3347181 17.6483777 17.4295532 17.838383 17.4928883 18.0407872 17.5310904 18.2559255 17.5310904 18.4965319 17.4928883 18.7498723 16.8538404 22.0912181"></polyline>
                        <polyline id="Fill-29" fill="#D82332" points="15.3284362 20.4394787 15.3220691 20.4079787 15.2969362 20.3761436 15.258734 20.3570426 15.195734 20.3446436 15.1260319 20.3319096 15.0435957 20.3255426 14.8539255 20.3255426 14.7527234 20.3319096 14.6448191 20.3446436 14.543617 20.3570426 14.4424149 20.3697766 14.3475798 20.3825106 14.2587766 20.4016117 14.1830426 20.4207128 14.1133404 20.4394787 14.0691064 20.4522128 14.0185053 20.4713138 13.9488032 20.4964468 13.8791011 20.5279468 13.797 20.5661489 13.7145638 20.610383 13.6260957 20.654617 13.5436596 20.7052181 13.4551915 20.7685532 13.3730904 20.8318883 13.2970213 20.9079574 13.2273191 20.9836915 13.163984 21.0661277 13.11975 21.1545957 13.081883 21.2557979 13.0627819 21.357 13.0564149 21.5724734 13.0879149 21.7433777 13.15125 21.8697128 13.2336862 21.964883 13.3285213 22.0282181 13.4364255 22.0660851 13.5372926 22.0848511 13.6388298 22.0912181 13.8285 22.0848511 13.9994043 22.0660851 14.1639415 22.040617 14.3093777 22.00275 14.4360479 21.958516 14.5563511 21.9015479 14.6639202 21.8445798 14.7590904 21.7748777 14.8411915 21.7115426 14.9172606 21.6358085 14.9805957 21.5661064 15.0311968 21.4900372 15.0754309 21.4143032 15.1132979 21.338234 15.145133 21.2685319 15.1638989 21.1988298 15.2145 21.0155266 15.258734 20.8067553 15.2969362 20.604016 15.3284362 20.4394787"></polyline>
                        <polyline id="Fill-30" fill="#FFFFFE" points="3.53771809 23.4963191 1.8162766 23.4963191 3.25287766 15.1866862 6.24638298 15.1866862 6.5312234 20.1167713 8.60084043 15.1866862 11.727383 15.1866862 10.2589468 23.4963191 8.53750532 23.4963191 9.62626596 17.2878032 9.55656383 17.2878032 6.98060106 23.4963191 5.03765426 23.4963191 5.02492021 23.2369468 4.98068617 22.5469628 4.92371809 21.5661064 4.79738298 19.306484 4.74041489 18.3128936 4.69584574 17.5914096 4.6831117 17.2878032 4.5882766 17.2878032 3.53771809 23.4963191"></polyline>
                        <polyline id="Stroke-31" stroke="#FFFFFE" stroke-width="0.216" points="3.53771809 23.4963191 1.8162766 23.4963191 3.25287766 15.1866862 6.24638298 15.1866862 6.5312234 20.1167713 8.60084043 15.1866862 11.727383 15.1866862 10.2589468 23.4963191 8.53750532 23.4963191 9.62626596 17.2878032 9.55656383 17.2878032 6.98060106 23.4963191 5.03765426 23.4963191 5.02492021 23.2369468 4.98068617 22.5469628 4.92371809 21.5661064 4.79738298 19.306484 4.74041489 18.3128936 4.69584574 17.5914096 4.6831117 17.2878032 4.5882766 17.2878032 3.53771809 23.4963191"></polyline>
                        <polyline id="Fill-32" fill="#FFFFFE" points="48.2640319 22.0912181 48.0046596 23.4963191 46.4162553 23.4963191 46.4286543 23.2369468 46.4350213 23.0090745 46.4350213 22.8381702 46.4477553 22.7621011 46.3653191 22.8569362 46.270484 22.9521064 46.1565479 23.0405745 46.0298777 23.1293777 45.8971755 23.2114787 45.7450372 23.2875479 45.586867 23.363617 45.4286968 23.426617 45.2577926 23.4772181 45.0808564 23.5278191 44.90325 23.5596543 44.7263138 23.5847872 44.5426755 23.5975213 44.3654043 23.6038883 44.1945 23.5847872 44.0235957 23.5596543 43.7957234 23.5026862 43.5933191 23.4393511 43.4160479 23.35725 43.2515106 23.2620798 43.1124415 23.1608777 42.9921383 23.0469415 42.8909362 22.9266383 42.802133 22.8003032 42.7263989 22.667266 42.6694309 22.5278617 42.6188298 22.3887926 42.5869947 22.2497234 42.5618617 22.1039521 42.5427606 21.958516 42.5300266 21.8191117 42.5300266 21.6800426 42.5427606 21.4330691 42.5806277 21.1988298 42.6375957 20.9773245 42.7200319 20.7621862 42.814867 20.5597819 42.9351702 20.3761436 43.0678723 20.1988723 43.2136436 20.0407021 43.3781809 19.895266 43.5490851 19.7622287 43.7323883 19.6422606 43.9287606 19.5407234 44.1247979 19.4522553 44.3339043 19.3825532 44.5426755 19.3255851 44.7578138 19.2877181 44.7705479 19.2877181 44.8020479 19.2813511 44.8462819 19.274984 44.909617 19.268617 44.9920532 19.255883 45.0808564 19.2498511 45.1756915 19.237117 45.2768936 19.224383 45.3844628 19.2116489 45.4983989 19.1989149 45.6059681 19.1925479 45.7135372 19.1801489 45.8147394 19.1737819 45.9035426 19.1674149 45.9920106 19.1610479 46.213516 19.1610479 46.3653191 19.1674149 46.5110904 19.1737819 46.6501596 19.1737819 46.7704628 19.1801489 46.8716649 19.186516 46.9289681 19.1925479 46.9541011 19.1925479 46.9665 19.1483138 46.9856011 19.0343777 47.0047021 18.9016755 47.0171011 18.7813723 46.9919681 18.6423032 46.941367 18.515633 46.8589309 18.4016968 46.7640957 18.3068617 46.6501596 18.2244255 46.5174574 18.1674574 46.3780532 18.1295904 46.22625 18.1168564 46.0489787 18.1104894 45.8589734 18.1041223 45.6629362 18.1041223 45.4601968 18.1104894 45.2514255 18.1232234 45.0490213 18.1419894 44.8462819 18.1610904 44.6502447 18.1865585 44.4602394 18.2116915 44.2769362 18.2431915 44.1123989 18.2750266 43.9605957 18.3068617 43.8211915 18.3447287 43.7072553 18.3825957 43.6187872 18.4268298 43.5490851 18.4650319 43.9920957 16.9396277 44.1311649 16.8826596 44.2769362 16.8320585 44.4223723 16.7878245 44.5741755 16.7559894 44.7326809 16.7244894 44.8908511 16.6993564 45.0553883 16.6738883 45.2262926 16.6611543 45.4035638 16.6484202 45.586867 16.6420532 45.7705053 16.6356862 46.3653191 16.6356862 46.5804574 16.6420532 46.7955957 16.6484202 46.972867 16.6611543 47.1628723 16.6929894 47.3589096 16.7372234 47.5616489 16.7941915 47.7576862 16.8699255 47.9540585 16.9587287 48.1437287 17.0662979 48.321 17.1866011 48.4791702 17.3256702 48.6246064 17.4774734 48.7512766 17.6483777 48.8464468 17.838383 48.9158138 18.0407872 48.960383 18.2559255 48.960383 18.4965319 48.9285479 18.7498723 48.2640319 22.0912181"></polyline>
                        <polyline id="Fill-33" fill="#FFFFFE" points="48.0046596 23.5405532 48.0425266 23.5026862 48.3018989 22.0975851 48.2261649 22.0848511 47.9664574 23.4899521 48.0046596 23.4520851 48.0046596 23.5405532 48.0361596 23.5341862 48.0425266 23.5026862 48.0046596 23.5405532"></polyline>
                        <polyline id="Fill-34" fill="#FFFFFE" points="46.3780532 23.4963191 46.4162553 23.5405532 48.0046596 23.5405532 48.0046596 23.4520851 46.4162553 23.4520851 46.4537872 23.4963191 46.3780532 23.4963191 46.3716862 23.5405532 46.4162553 23.5405532 46.3780532 23.4963191"></polyline>
                        <polyline id="Fill-35" fill="#FFFFFE" points="46.4792553 22.7875691 46.4222872 22.7369681 46.3971543 22.8381702 46.3907872 23.0090745 46.3907872 23.2369468 46.3780532 23.4963191 46.4537872 23.4963191 46.4665213 23.2369468 46.4792553 23.0090745 46.4728883 22.8381702 46.4728883 22.7875691 46.4162553 22.7369681 46.4792553 22.7875691"></polyline>
                        <polyline id="Fill-36" fill="#FFFFFE" points="44.0172287 23.5975213 44.0172287 23.5975213 44.1945 23.6229894 44.3654043 23.6420904 44.5426755 23.6357234 44.7263138 23.6229894 44.909617 23.5975213 45.0868883 23.5660213 45.2641596 23.5150851 45.4414309 23.4648191 45.5996011 23.401484 45.7641383 23.3254149 45.9159415 23.2496809 46.0489787 23.1608777 46.182016 23.0724096 46.295617 22.9836064 46.3971543 22.8824043 46.4792553 22.7875691 46.4162553 22.7369681 46.3338191 22.8318032 46.245016 22.9202713 46.1314149 23.0090745 46.0111117 23.0975426 45.8780745 23.1736117 45.574133 23.3254149 45.4159628 23.38875 45.2514255 23.4393511 45.0741543 23.4899521 44.896883 23.5217872 44.7263138 23.5469202 44.5426755 23.5596543 44.3654043 23.5660213 44.1945 23.5469202 44.0299628 23.5217872 44.0172287 23.5975213"></polyline>
                        <polyline id="Fill-37" fill="#FFFFFE" points="42.4857926 21.6800426 42.4857926 21.6800426 42.4921596 21.8191117 42.5048936 21.958516 42.5236596 22.1103191 42.5491277 22.2557553 42.5806277 22.3951596 42.6312287 22.5405957 42.6881968 22.686367 42.770633 22.8190691 42.8591011 22.9521064 42.9603032 23.0724096 43.0869734 23.1927128 43.2327447 23.2939149 43.3972819 23.395117 43.5805851 23.4772181 43.7896915 23.5405532 44.0172287 23.5975213 44.0299628 23.5217872 43.8020904 23.4648191 43.6060532 23.401484 43.4351489 23.3190479 43.2706117 23.2305798 43.1375745 23.1293777 43.0236383 23.0218085 42.9224362 22.9015053 42.8339681 22.7812021 42.764266 22.6481649 42.7072979 22.5154628 42.6566968 22.3824255 42.6251968 22.2433564 42.5997287 22.0975851 42.5806277 21.958516 42.5682287 21.8191117 42.5742606 21.6800426 42.4857926 21.6800426"></polyline>
                        <polyline id="Fill-38" fill="#FFFFFE" points="44.7578138 19.2498511 44.7578138 19.2498511 44.5363085 19.2877181 44.3211702 19.3446862 44.1123989 19.4140532 43.9096596 19.5028564 43.7136223 19.6040585 43.523617 19.7307287 43.3527128 19.863766 43.1881755 20.0155691 43.0363723 20.1737394 42.9033351 20.3510106 42.777 20.5406809 42.6818298 20.7494521 42.5997287 20.9649255 42.5427606 21.1927979 42.5048936 21.4330691 42.4857926 21.6800426 42.5742606 21.6800426 42.5806277 21.4330691 42.6188298 21.2051968 42.6757979 20.9900585 42.7578989 20.7749202 42.852734 20.5785479 42.9666702 20.4016117 43.0997074 20.2243404 43.2387766 20.0661702 43.4036489 19.926766 43.5742181 19.7940638 43.7514894 19.6801277 43.9478617 19.5785904 44.1375319 19.4901223 44.3466383 19.4204202 44.5490426 19.3634521 44.7578138 19.3255851 44.7578138 19.2498511"></polyline>
                        <polyline id="Fill-39" fill="#FFFFFE" points="46.0617128 19.1168138 45.9920106 19.1168138 45.9035426 19.1295479 45.8147394 19.1359149 45.7135372 19.1419468 45.6059681 19.1546809 45.4983989 19.1610479 45.3844628 19.1737819 45.2768936 19.186516 45.1756915 19.1989149 45.0808564 19.2116489 44.9920532 19.218016 44.909617 19.23075 44.8462819 19.237117 44.7956809 19.243484 44.7705479 19.2498511 44.7578138 19.2498511 44.7578138 19.3255851 44.7705479 19.3255851 44.8084149 19.3192181 44.8462819 19.3128511 44.909617 19.306484 44.9920532 19.2940851 45.0808564 19.2877181 45.1756915 19.274984 45.2768936 19.26225 45.3844628 19.2498511 45.4983989 19.237117 45.6059681 19.23075 45.7135372 19.218016 45.8147394 19.2116489 45.9035426 19.2052819 46.0617128 19.2052819 46.0617128 19.1168138"></polyline>
                        <polyline id="Fill-40" fill="#FFFFFE" points="46.9158989 19.186516 46.9541011 19.1546809 46.9289681 19.1546809 46.8716649 19.1483138 46.7704628 19.1419468 46.6501596 19.1295479 46.3653191 19.1295479 46.213516 19.1168138 46.0617128 19.1168138 46.0617128 19.2052819 46.3653191 19.2052819 46.5110904 19.218016 46.7704628 19.218016 46.8716649 19.224383 46.9289681 19.23075 46.9541011 19.23075 46.9919681 19.1989149 46.9541011 19.23075 46.9856011 19.237117 46.9919681 19.1989149 46.9158989 19.186516"></polyline>
                        <polyline id="Fill-41" fill="#FFFFFE" points="46.979234 18.7813723 46.972867 18.7813723 46.9665 18.9016755 46.947734 19.0283457 46.9289681 19.1419468 46.9158989 19.186516 46.9919681 19.1989149 47.0047021 19.1546809 47.0234681 19.0407447 47.0425691 18.9016755 47.0616702 18.7813723 46.979234 18.7813723"></polyline>
                        <polyline id="Fill-42" fill="#FFFFFE" points="46.22625 18.1547234 46.22625 18.1610904 46.3716862 18.1674574 46.5047234 18.2053245 46.6310585 18.2622926 46.7389628 18.3383617 46.8274309 18.4268298 46.9035 18.5343989 46.9541011 18.6483351 46.979234 18.7813723 47.0553032 18.7813723 47.0298351 18.6359362 46.979234 18.4965319 46.890766 18.3762287 46.7895638 18.2750266 46.6692606 18.1865585 46.5298564 18.1295904 46.3844202 18.0913883 46.22625 18.0726223 46.22625 18.1547234"></polyline>
                        <polyline id="Fill-43" fill="#FFFFFE" points="43.510883 18.4586649 43.5742181 18.4965319 43.6375532 18.4650319 43.7199894 18.4204628 43.8275585 18.3825957 43.9666277 18.3447287 44.1184309 18.3128936 44.2833032 18.2813936 44.4666064 18.2498936 44.6502447 18.2244255 44.8462819 18.1989574 45.0490213 18.1801915 45.2514255 18.1610904 45.4601968 18.1483564 46.0489787 18.1483564 46.22625 18.1547234 46.22625 18.0789894 46.0489787 18.0726223 45.8589734 18.0598883 45.6629362 18.0598883 45.4601968 18.0726223 45.2514255 18.0853564 45.0490213 18.1041223 44.8462819 18.1232234 44.6502447 18.1483564 44.4542074 18.1738245 44.2705691 18.2053245 44.1060319 18.2371596 43.9542287 18.2686596 43.8148245 18.3068617 43.6945213 18.3447287 43.5996862 18.3889628 43.523617 18.4331968 43.5869521 18.4713989 43.510883 18.4586649"></polyline>
                        <polyline id="Fill-44" fill="#FFFFFE" points="43.9793617 16.9017606 43.9542287 16.9332606 43.510883 18.4586649 43.5869521 18.4713989 44.0299628 16.9459947 44.0048298 16.9774947 43.9793617 16.9017606 43.9605957 16.9081277 43.9542287 16.9332606 43.9793617 16.9017606"></polyline>
                        <polyline id="Fill-45" fill="#FFFFFE" points="46.7955957 16.6105532 46.7955957 16.6105532 46.5804574 16.5978191 46.3653191 16.5914521 45.7705053 16.5914521 45.586867 16.6041862 45.4035638 16.6105532 45.2262926 16.6232872 45.0553883 16.6356862 44.884484 16.6611543 44.7263138 16.6866223 44.5681436 16.7181223 44.4160053 16.7499574 44.2642021 16.7941915 44.1184309 16.8447926 43.9793617 16.9017606 44.0048298 16.9774947 44.1438989 16.9208617 44.2893351 16.8699255 44.4287394 16.8256915 44.5805426 16.7941915 44.7390479 16.7623564 44.896883 16.7372234 45.0553883 16.7117553 45.2262926 16.6993564 45.4035638 16.6866223 45.586867 16.6802553 46.3653191 16.6802553 46.5804574 16.6866223 46.7955957 16.6866223 46.7955957 16.6105532"></polyline>
                        <polyline id="Fill-46" fill="#FFFFFE" points="48.9664149 18.7559043 48.9664149 18.7559043 48.99825 18.4965319 48.99825 18.2559255 48.954016 18.0344202 48.8843138 17.8256489 48.7831117 17.6296117 48.6564415 17.4523404 48.5046383 17.2941702 48.3464681 17.154766 48.1628298 17.0344628 47.9728245 16.9208617 47.7704202 16.8320585 47.5740479 16.7559894 47.3652766 16.6993564 47.1692394 16.6547872 46.972867 16.6232872 46.7955957 16.6105532 46.7955957 16.6866223 46.972867 16.6993564 47.1565053 16.7308564 47.3525426 16.7750904 47.5489149 16.8320585 47.7452872 16.9081277 47.9349574 16.9965957 48.1249628 17.0977979 48.295867 17.2181011 48.4540372 17.3575053 48.5931064 17.5029415 48.7197766 17.6674787 48.8082447 17.851117 48.8779468 18.0471543 48.9221809 18.2559255 48.9221809 18.4965319 48.8906809 18.7435053 48.9664149 18.7559043"></polyline>
                        <polyline id="Fill-47" fill="#FFFFFE" points="48.3018989 22.0975851 48.3018989 22.0975851 48.9664149 18.7559043 48.8906809 18.7435053 48.2261649 22.0848511 48.3018989 22.0975851"></polyline>
                        <polyline id="Fill-48" fill="#F1AD3D" points="46.7325957 20.4394787 46.7198617 20.4016117 46.6943936 20.3697766 46.6501596 20.3510106 46.5868245 20.3319096 46.5174574 20.3255426 46.4350213 20.3191755 46.3401862 20.3191755 46.245016 20.3255426 46.1441489 20.3382766 46.0426117 20.3510106 45.9414096 20.3634096 45.8462394 20.3761436 45.7514043 20.3952447 45.6693032 20.4079787 45.586867 20.4267447 45.5235319 20.4394787 45.4792979 20.4458457 45.4286968 20.4649468 45.3656968 20.4837128 45.2956596 20.5091809 45.2135585 20.5470479 45.1374894 20.5849149 45.0490213 20.629484 44.884484 20.7434202 44.8020479 20.8127872 44.7326809 20.8824894 44.6629787 20.9649255 44.6060106 21.0533936 44.5617766 21.1482287 44.5235745 21.249766 44.5048085 21.357 44.4984415 21.5724734 44.5299415 21.7433777 44.5805426 21.8697128 44.6566117 21.964883 44.7514468 22.0282181 44.859016 22.0660851 44.9665851 22.0848511 45.0741543 22.0912181 45.2641596 22.0848511 45.4414309 22.0660851 45.6059681 22.03425 45.7514043 21.990016 45.8908085 21.9394149 46.0111117 21.8824468 46.1250479 21.8191117 46.22625 21.7433777 46.3147181 21.6736755 46.3907872 21.5912394 46.4601543 21.5155053 46.5174574 21.4330691 46.5616915 21.357 46.5931915 21.281266 46.6186596 21.2051968 46.6374255 21.1358298 46.6628936 20.9585585 46.6943936 20.7749202 46.7198617 20.5976489 46.7325957 20.4394787"></polyline>
                        <polyline id="Fill-49" fill="#FFFFFE" points="59.7699096 22.6293989 59.7826436 22.4836277 59.8332447 22.3127234 59.9220479 22.1609202 60.029617 22.0282181 60.1623191 21.9203138 60.3141223 21.8445798 60.4789947 21.7939787 60.6559309 21.7748777 60.8332021 21.7939787 60.9977394 21.8445798 61.1495426 21.9203138 61.2825798 22.0282181 61.3901489 22.1609202 61.4789521 22.3127234 61.5295532 22.4836277 61.5419521 22.6293989 61.3522819 22.6293989 61.3459149 22.5154628 61.3080479 22.3760585 61.2447128 22.2497234 61.1622766 22.1418191 61.0610745 22.0533511 60.9407713 21.990016 60.8017021 21.9457819 60.6559309 21.9330479 60.5104947 21.9457819 60.3710904 21.990016 60.2511223 22.0533511 60.1495851 22.1418191 60.067484 22.2497234 60.0041489 22.3760585 59.9662819 22.5154628 59.9535479 22.6293989 59.7699096 22.6293989"></polyline>
                        <polyline id="Fill-50" fill="#FFFFFE" points="60.3395904 22.6293989 60.3395904 22.2497234 60.687766 22.2497234 60.7635 22.2557553 60.8332021 22.2684894 60.8838032 22.2875904 60.9280372 22.3127234 60.9598723 22.3509255 60.9850053 22.3887926 60.9977394 22.4330266 61.0041064 22.4772606 60.9977394 22.5342287 60.9850053 22.5787979 60.9662394 22.6166649 60.9535053 22.6293989 60.687766 22.6293989 60.7128989 22.6230319 60.757133 22.6166649 60.7953351 22.6039309 60.8268351 22.5915319 60.8523032 22.5724309 60.8650372 22.5533298 60.8774362 22.5218298 60.8774362 22.4772606 60.8710691 22.4457606 60.8586702 22.4206277 60.8395691 22.4078936 60.8204681 22.3951596 60.7889681 22.3887926 60.757133 22.3824255 60.4977606 22.3824255 60.4977606 22.6293989 60.3395904 22.6293989"></polyline>
                        <polyline id="Fill-51" fill="#FFFFFE" points="59.7699096 22.6293989 59.7635426 22.667266 59.7826436 22.8509043 59.8332447 23.0218085 59.9220479 23.1736117 60.029617 23.3002819 60.1623191 23.4078511 60.3141223 23.4899521 60.4789947 23.5405532 60.6559309 23.5596543 60.8332021 23.5405532 60.9977394 23.4899521 61.1495426 23.4078511 61.2825798 23.3002819 61.3901489 23.1736117 61.4789521 23.0218085 61.5295532 22.8509043 61.5483191 22.667266 61.5419521 22.6293989 61.3522819 22.6293989 61.3586489 22.667266 61.3459149 22.8190691 61.3080479 22.9584734 61.2447128 23.0787766 61.1622766 23.1860106 61.0610745 23.2748138 60.9407713 23.344516 60.8017021 23.38875 60.6559309 23.401484 60.5104947 23.38875 60.3710904 23.344516 60.2511223 23.2748138 60.1495851 23.1860106 60.067484 23.0787766 60.0041489 22.9584734 59.9662819 22.8190691 59.9535479 22.667266 59.9535479 22.6293989 59.7699096 22.6293989"></polyline>
                        <polyline id="Fill-52" fill="#FFFFFE" points="60.3395904 22.6293989 60.3395904 23.0154415 60.4977606 23.0154415 60.4977606 22.698766 60.6559309 22.698766 60.8459362 23.0154415 60.9726064 23.0154415 60.7826011 22.698766 60.8268351 22.698766 60.8710691 22.686367 60.9092713 22.673633 60.9407713 22.6481649 60.9535053 22.6293989 60.687766 22.6293989 60.6559309 22.635766 60.4977606 22.635766 60.4977606 22.6293989 60.3395904 22.6293989"></polyline>
                        <path d="M59.7635426,22.667266 L59.7635426,22.667266 L59.7826436,22.4836277 L59.8332447,22.3127234 L59.9220479,22.1609202 L60.029617,22.0282181 L60.1623191,21.9203138 L60.3141223,21.8445798 L60.4789947,21.7939787 L60.6559309,21.7748777 L60.8332021,21.7939787 L60.9977394,21.8445798 L61.1495426,21.9203138 L61.2825798,22.0282181 L61.3901489,22.1609202 L61.4789521,22.3127234 L61.5295532,22.4836277 L61.5483191,22.667266 L61.5295532,22.8509043 L61.4789521,23.0218085 L61.3901489,23.1736117 L61.2825798,23.3002819 L61.1495426,23.4078511 L60.9977394,23.4899521 L60.8332021,23.5405532 L60.6559309,23.5596543 L60.4789947,23.5405532 L60.3141223,23.4899521 L60.1623191,23.4078511 L60.029617,23.3002819 L59.9220479,23.1736117 L59.8332447,23.0218085 L59.7826436,22.8509043 L59.7635426,22.667266 M60.4977606,23.0154415 L60.3395904,23.0154415 L60.3395904,22.2497234 L60.687766,22.2497234 L60.7635,22.2557553 L60.8332021,22.2684894 L60.8838032,22.2875904 L60.9280372,22.3127234 L60.9598723,22.3509255 L60.9850053,22.3887926 L60.9977394,22.4330266 L61.0041064,22.4772606 L60.9977394,22.5342287 L60.9850053,22.5787979 L60.9662394,22.6166649 L60.9407713,22.6481649 L60.9092713,22.673633 L60.8710691,22.686367 L60.8268351,22.698766 L60.7826011,22.698766 L60.9726064,23.0154415 L60.8459362,23.0154415 L60.6559309,22.698766 L60.4977606,22.698766 L60.4977606,23.0154415 M60.6559309,22.635766 L60.6559309,22.635766 L60.7128989,22.6230319 L60.757133,22.6166649 L60.7953351,22.6039309 L60.8268351,22.5915319 L60.8523032,22.5724309 L60.8650372,22.5533298 L60.8774362,22.5218298 L60.8774362,22.4772606 L60.8710691,22.4457606 L60.8586702,22.4206277 L60.8395691,22.4078936 L60.8204681,22.3951596 L60.7889681,22.3887926 L60.757133,22.3824255 L60.4977606,22.3824255 L60.4977606,22.635766 L60.6559309,22.635766 M60.6559309,23.401484 L60.6559309,23.401484 L60.8017021,23.38875 L60.9407713,23.344516 L61.0610745,23.2748138 L61.1622766,23.1860106 L61.2447128,23.0787766 L61.3080479,22.9584734 L61.3459149,22.8190691 L61.3586489,22.667266 L61.3459149,22.5154628 L61.3080479,22.3760585 L61.2447128,22.2497234 L61.1622766,22.1418191 L61.0610745,22.0533511 L60.9407713,21.990016 L60.8017021,21.9457819 L60.6559309,21.9330479 L60.5104947,21.9457819 L60.3710904,21.990016 L60.2511223,22.0533511 L60.1495851,22.1418191 L60.067484,22.2497234 L60.0041489,22.3760585 L59.9662819,22.5154628 L59.9535479,22.667266 L59.9662819,22.8190691 L60.0041489,22.9584734 L60.067484,23.0787766 L60.1495851,23.1860106 L60.2511223,23.2748138 L60.3710904,23.344516 L60.5104947,23.38875 L60.6559309,23.401484" id="Stroke-53" stroke="#FFFFFE" stroke-width="0.216"></path>
                        <polyline id="Fill-54" fill="#FFFFFE" points="48.7388777 23.4963191 50.5233191 23.4963191 51.1627021 19.895266 51.1878351 19.7558617 51.2639043 19.4773883 51.3145053 19.3383191 51.3778404 19.1989149 51.4539096 19.0662128 51.5360106 18.9395426 51.6375479 18.8192394 51.7511489 18.7116702 51.8778191 18.6104681 52.0235904 18.515633 52.1881277 18.4395638 52.3714309 18.3762287 52.5741702 18.3256277 52.7956755 18.2877606 53.0423138 18.2750266 53.200484 18.2750266 53.4853245 16.6484202 53.3080532 16.6611543 53.1371489 16.6802553 52.9789787 16.7117553 52.8271755 16.7559894 52.6881064 16.8065904 52.5550691 16.8699255 52.4283989 16.9396277 52.3080957 17.0156968 52.1944947 17.1041649 52.0865904 17.1929681 51.8841862 17.3953723 51.7893511 17.5029415 51.694516 17.6232447 51.5993457 17.7371809 51.5108777 17.863516 51.700883 16.7181223 49.9221383 16.7181223 48.7388777 23.4963191"></polyline>
                        <polyline id="Stroke-55" stroke="#FFFFFE" stroke-width="0.216" points="48.7388777 23.4963191 50.5233191 23.4963191 51.1627021 19.895266 51.1878351 19.7558617 51.2639043 19.4773883 51.3145053 19.3383191 51.3778404 19.1989149 51.4539096 19.0662128 51.5360106 18.9395426 51.6375479 18.8192394 51.7511489 18.7116702 51.8778191 18.6104681 52.0235904 18.515633 52.1881277 18.4395638 52.3714309 18.3762287 52.5741702 18.3256277 52.7956755 18.2877606 53.0423138 18.2750266 53.200484 18.2750266 53.4853245 16.6484202 53.3080532 16.6611543 53.1371489 16.6802553 52.9789787 16.7117553 52.8271755 16.7559894 52.6881064 16.8065904 52.5550691 16.8699255 52.4283989 16.9396277 52.3080957 17.0156968 52.1944947 17.1041649 52.0865904 17.1929681 51.8841862 17.3953723 51.7893511 17.5029415 51.694516 17.6232447 51.5993457 17.7371809 51.5108777 17.863516 51.700883 16.7181223 49.9221383 16.7181223 48.7388777 23.4963191"></polyline>
                        <polyline id="Fill-56" fill="#FFFFFE" points="31.9798723 23.4963191 33.7961489 23.4963191 34.4036968 19.895266 34.4291649 19.7558617 34.4606649 19.6231596 34.4925 19.4901223 34.536734 19.3634521 34.5873351 19.237117 34.6506702 19.1168138 34.7267394 19.0028777 34.8152074 18.8953085 34.9164096 18.8001383 35.0303457 18.7053032 35.16975 18.6295691 35.3215532 18.559867 35.4984894 18.5028989 35.6948617 18.4522979 35.91 18.4204628 36.1569734 18.4016968 36.1757394 18.4016968 36.2012074 18.4080638 36.2327074 18.4140957 36.2645426 18.4140957 36.2960426 18.4204628 36.3215106 18.4268298 36.3402766 18.4331968 36.3466436 18.4331968 36.3530106 18.4080638 36.3721117 18.3319947 36.3972447 18.2180585 36.4290798 18.0789894 36.4733138 17.9144521 36.5175479 17.7371809 36.574516 17.5599096 36.631484 17.3826383 36.6820851 17.2623351 36.8087553 17.0220638 36.8720904 16.9144947 36.9290585 16.8193245 36.9732926 16.7435904 37.0047926 16.6993564 37.0175266 16.6802553 37.0111596 16.6802553 36.9860266 16.6738883 36.9541915 16.6675213 36.9099574 16.6611543 36.8657234 16.6611543 36.8151223 16.6547872 36.7708883 16.6484202 36.7266543 16.6484202 36.5302819 16.6611543 36.3530106 16.6802553 36.1884734 16.7117553 36.0366702 16.7499574 35.8908989 16.8005585 35.7581968 16.8635585 35.6378936 16.9268936 35.5239574 17.0029628 35.4163883 17.0850638 35.3151862 17.180234 35.2203511 17.2750691 35.1251809 17.3826383 35.0303457 17.4902074 34.9418777 17.6105106 34.7518723 17.863516 34.9797447 16.7181223 33.1634681 16.7181223 31.9798723 23.4963191"></polyline>
                        <polyline id="Stroke-57" stroke="#FFFFFE" stroke-width="0.216" points="31.9798723 23.4963191 33.7961489 23.4963191 34.4036968 19.895266 34.4291649 19.7558617 34.4606649 19.6231596 34.4925 19.4901223 34.536734 19.3634521 34.5873351 19.237117 34.6506702 19.1168138 34.7267394 19.0028777 34.8152074 18.8953085 34.9164096 18.8001383 35.0303457 18.7053032 35.16975 18.6295691 35.3215532 18.559867 35.4984894 18.5028989 35.6948617 18.4522979 35.91 18.4204628 36.1569734 18.4016968 36.1757394 18.4016968 36.2012074 18.4080638 36.2327074 18.4140957 36.2645426 18.4140957 36.2960426 18.4204628 36.3215106 18.4268298 36.3402766 18.4331968 36.3466436 18.4331968 36.3530106 18.4080638 36.3721117 18.3319947 36.3972447 18.2180585 36.4290798 18.0789894 36.4733138 17.9144521 36.5175479 17.7371809 36.574516 17.5599096 36.631484 17.3826383 36.6820851 17.2623351 36.8087553 17.0220638 36.8720904 16.9144947 36.9290585 16.8193245 36.9732926 16.7435904 37.0047926 16.6993564 37.0175266 16.6802553 37.0111596 16.6802553 36.9860266 16.6738883 36.9541915 16.6675213 36.9099574 16.6611543 36.8657234 16.6611543 36.8151223 16.6547872 36.7708883 16.6484202 36.7266543 16.6484202 36.5302819 16.6611543 36.3530106 16.6802553 36.1884734 16.7117553 36.0366702 16.7499574 35.8908989 16.8005585 35.7581968 16.8635585 35.6378936 16.9268936 35.5239574 17.0029628 35.4163883 17.0850638 35.3151862 17.180234 35.2203511 17.2750691 35.1251809 17.3826383 35.0303457 17.4902074 34.9418777 17.6105106 34.7518723 17.863516 34.9797447 16.7181223 33.1634681 16.7181223 31.9798723 23.4963191"></polyline>
                        <polyline id="Fill-58" fill="#F1AD3D" points="59.7826436 30.1542128 59.7826436 30.1290798 59.8332447 29.9645426 59.9220479 29.8191064 60.029617 29.6924362 60.1623191 29.5908989 60.3141223 29.5151649 60.4789947 29.4709309 60.6559309 29.4518298 60.8332021 29.4709309 60.9977394 29.5151649 61.1495426 29.5908989 61.2825798 29.6924362 61.3901489 29.8191064 61.4789521 29.9645426 61.5295532 30.1290798 61.5295532 30.1542128 61.3459149 30.1542128 61.3080479 30.0215106 61.2447128 29.9012074 61.1622766 29.7936383 61.0610745 29.7051702 60.9407713 29.6354681 60.8017021 29.5908989 60.6559309 29.5785 60.5104947 29.5908989 60.3710904 29.6354681 60.2511223 29.7051702 60.1495851 29.7936383 60.067484 29.9012074 60.0041489 30.0215106 59.9662819 30.1542128 59.7826436 30.1542128"></polyline>
                        <polyline id="Fill-59" fill="#F1AD3D" points="60.3395904 30.1542128 60.3395904 29.9327074 60.7635 29.9327074 60.8332021 29.9454415 60.8838032 29.9581755 60.9280372 29.9833085 60.9598723 30.0151436 60.9850053 30.0530106 60.9977394 30.0975798 61.0041064 30.1542128 60.8774362 30.1542128 60.8774362 30.1227128 60.8710691 30.0912128 60.8586702 30.0657447 60.8395691 30.0530106 60.8204681 30.0406117 60.7889681 30.0342447 60.757133 30.0278777 60.4977606 30.0278777 60.4977606 30.1542128 60.3395904 30.1542128"></polyline>
                        <polyline id="Fill-60" fill="#F1AD3D" points="59.7635426 30.293617 59.7826436 30.1542128 59.9662819 30.1542128 59.9662819 30.1605798 59.9535479 30.293617 59.7635426 30.293617"></polyline>
                        <polyline id="Fill-61" fill="#F1AD3D" points="60.3395904 30.293617 60.3395904 30.1542128 60.4977606 30.1542128 60.4977606 30.280883 60.6559309 30.280883 60.7128989 30.2681489 60.757133 30.262117 60.7953351 30.249383 60.8268351 30.2366489 60.8523032 30.2175479 60.8650372 30.1987819 60.8774362 30.1669468 60.8774362 30.1542128 61.0041064 30.1542128 60.9977394 30.1987819 60.9850053 30.2366489 60.9662394 30.2681489 60.9407713 30.293617 60.3395904 30.293617"></polyline>
                        <polyline id="Fill-62" fill="#F1AD3D" points="61.3586489 30.293617 61.3459149 30.1605798 61.3459149 30.1542128 61.5295532 30.1542128 61.5483191 30.293617 61.3586489 30.293617"></polyline>
                        <polyline id="Fill-63" fill="#F1AD3D" points="59.7635426 30.293617 59.7635426 30.3127181 59.7826436 30.4960213 59.8332447 30.6669255 59.9220479 30.8190638 60.029617 30.951766 60.1623191 31.0593351 60.3141223 31.1354043 60.4789947 31.1860053 60.6559309 31.2051064 60.8332021 31.1860053 60.9977394 31.1354043 61.1495426 31.0593351 61.2825798 30.951766 61.3901489 30.8190638 61.4789521 30.6669255 61.5295532 30.4960213 61.5483191 30.3127181 61.5483191 30.293617 61.3586489 30.293617 61.3586489 30.3127181 61.3459149 30.4645213 61.3080479 30.6035904 61.2447128 30.7238936 61.1622766 30.8314628 61.0610745 30.920266 60.9407713 30.989633 60.8017021 31.033867 60.6559309 31.0466011 60.5104947 31.033867 60.3710904 30.989633 60.2511223 30.920266 60.1495851 30.8314628 60.067484 30.7238936 60.0041489 30.6035904 59.9662819 30.4645213 59.9535479 30.3127181 59.9535479 30.293617 59.7635426 30.293617"></polyline>
                        <polyline id="Fill-64" fill="#F1AD3D" points="60.3395904 30.293617 60.3395904 30.6605585 60.4977606 30.6605585 60.4977606 30.3442181 60.6559309 30.3442181 60.8459362 30.6605585 60.9726064 30.6605585 60.7826011 30.3442181 60.8268351 30.3442181 60.8710691 30.331484 60.9092713 30.31875 60.9407713 30.293617 60.3395904 30.293617"></polyline>
                    </g>
                </g>
            </g>
        </g>
    </g>
</svg>