<?xml version="1.0" encoding="UTF-8"?>
<svg width="113px" height="30px" viewBox="0 0 113 30" version="1.1" xmlns="http://www.w3.org/2000/svg" xmlns:xlink="http://www.w3.org/1999/xlink">
    <!-- Generator: Sketch 52.5 (67469) - http://www.bohemiancoding.com/sketch -->
    <title>paypal</title>
    <desc>Created with Sketch.</desc>
    <g id="Forms-&amp;-Popovers" stroke="none" stroke-width="1" fill="none" fill-rule="evenodd">
        <g id="web-grid" transform="translate(-644.000000, -3011.000000)">
            <g id="checkout-step-3" transform="translate(30.000000, 2760.000000)">
                <g id="pay-with-paypal" transform="translate(480.000000, 216.000000)">
                    <g id="paypal" transform="translate(134.000000, 35.000000)">
                        <path d="M87.7646303,16.8659085 C87.4434822,18.4154549 86.2202855,19.0901476 84.7393607,19.1582296 C83.4520694,19.2249499 82.2916181,18.078449 83.1288972,16.7311061 C83.7738922,15.585286 85.5766399,15.3150004 86.6709724,15.3150004 L88.0878025,15.3150004 C87.9582638,15.8542099 87.8928197,16.3273798 87.7646303,16.8659085 L87.7646303,16.8659085 Z M87.3787128,5.00261924 C84.609822,5.00261924 82.4211569,5.74403227 80.7472733,6.08103819 L80.2311424,10.3273128 C81.0684215,9.92290569 83.7084482,9.18217348 85.8984627,9.11409148 C88.0878025,9.04669029 89.3750939,9.51781776 88.9250816,11.4057317 C82.4211569,11.4057317 78.0418025,12.7537554 77.1404287,17.0007108 C75.851788,24.2800387 83.7738922,24.078516 86.9287006,20.9099795 L86.5421084,22.6624103 L92.3376181,22.6624103 L94.8494554,11.0687258 C95.8790186,6.14775855 91.4355696,4.93521806 87.3787128,5.00261924 L87.3787128,5.00261924 Z" id="Fill-12" fill="#26769C"></path>
                        <polyline id="Fill-13" fill="#26769C" points="100.910616 0 96 22 102.029271 22 107 0 100.910616 0"></polyline>
                        <path d="M72.7233496,7.48957726 C72.3262779,9.16120713 70.6081658,10.498511 68.9563475,10.498511 L65.9841793,10.498511 L67.3059102,4.48064348 L70.4769595,4.48064348 C72.1280873,4.48064348 73.1190402,5.81794738 72.7233496,7.48957726 L72.7233496,7.48957726 Z M72.9201591,0 L61.8884708,0 L57,22 L63.4077017,22 L65.0595201,14.7110183 L69.6179035,14.7110183 C74.1093026,14.7110183 77.8086299,12.0364105 78.8002733,7.48957726 C79.9224326,2.34028183 76.0912084,0 72.9201591,0 L72.9201591,0 Z" id="Fill-14" fill="#26769C"></path>
                        <path d="M30.7666194,16.8659085 C30.4448858,18.4154549 29.1559022,19.0901476 27.6749714,19.1582296 C26.387354,19.2249499 25.2923669,18.078449 26.1298305,16.7311061 C26.7732977,15.585286 28.5766452,15.3150004 29.6074222,15.3150004 L31.0890361,15.3150004 C30.9599328,15.8542099 30.8315126,16.3273798 30.7666194,16.8659085 L30.7666194,16.8659085 Z M30.3164656,5.00261924 C27.5465512,5.00261924 25.356577,5.74403227 23.7465429,6.08103819 L23.2314959,10.3273128 C24.0040664,9.92290569 26.6455606,9.18217348 28.8341686,9.11409148 C31.024826,9.04669029 32.3131265,9.51781776 31.9258166,11.4057317 C25.4214702,11.4057317 21.0422048,12.7537554 20.140531,17.0007108 C18.8515475,24.2800387 26.7732977,24.078516 29.8642626,20.9099795 L29.479002,22.6624103 L35.3391982,22.6624103 L37.850906,11.0687258 C38.881683,6.14775855 34.3733143,4.93521806 30.3164656,5.00261924 L30.3164656,5.00261924 Z" id="Fill-15" fill="#24516F"></path>
                        <polyline id="Fill-16" fill="#24516F" points="40.9383214 5 46.9480286 5 47.9175395 15.4462195 53.7976516 5 60 5 45.720028 30 39 30 43.393622 22.6504614 40.9383214 5"></polyline>
                        <path d="M15.7206638,7.48957726 C15.324634,9.16120713 13.6730172,10.498511 12.0214005,10.498511 L8.98333487,10.498511 L10.3704725,4.48064348 L13.5407777,4.48064348 C15.1262747,4.48064348 16.1828135,5.81794738 15.7206638,7.48957726 L15.7206638,7.48957726 Z M15.9183344,0 L4.88735293,0 L0,22 L6.47353864,22 L8.05834685,14.7110183 L12.6819095,14.7110183 C17.1071127,14.7110183 20.8070648,12.0364105 21.7974839,7.48957726 C22.9201424,2.34028183 19.1554481,0 15.9183344,0 L15.9183344,0 Z" id="Fill-17" fill="#24516F"></path>
                        <polyline id="Fill-19" fill="#24516F" points="107.830156 3 107.830156 0.354395604 107 0.354395604 107 0 109 0 109 0.354395604 108.165222 0.354395604 108.165222 3 107.830156 3"></polyline>
                        <path d="M110,3 L110,0 L110.622451,0 L111.367954,2.12293956 C111.437035,2.32074176 111.486687,2.46840659 111.51835,2.56662088 C111.55433,2.4581044 111.610458,2.29739011 111.686016,2.08653846 L112.440154,0 L113,0 L113,3 L112.599904,3 L112.599904,0.488324176 L111.683137,3 L111.308227,3 L110.399376,0.447115385 L110.399376,3 L110,3" id="Fill-20" fill="#24516F"></path>
                    </g>
                </g>
            </g>
        </g>
    </g>
</svg>