<?xml version="1.0" encoding="UTF-8"?>
<svg width="67px" height="23px" viewBox="0 0 67 23" version="1.1" xmlns="http://www.w3.org/2000/svg" xmlns:xlink="http://www.w3.org/1999/xlink">
    <!-- Generator: Sketch 52.5 (67469) - http://www.bohemiancoding.com/sketch -->
    <title>visa</title>
    <desc>Created with Sketch.</desc>
    <g id="Forms-&amp;-Popovers" stroke="none" stroke-width="1" fill="none" fill-rule="evenodd">
        <g id="web-grid" transform="translate(-219.000000, -3008.000000)">
            <g id="checkout-step-3" transform="translate(30.000000, 2760.000000)">
                <g id="pay-with-card" transform="translate(79.000000, 216.000000)">
                    <g id="visa" transform="translate(110.000000, 32.000000)">
                        <polyline id="Fill-1" fill="#005C9C" points="29.5381551 23 24 23 27.4612758 1 33 1 29.5381551 23"></polyline>
                        <path d="M19.0835254,1 L13.8420089,16.1311791 L13.222403,12.8727263 L13.2229678,12.8739033 L11.3726221,2.98143591 C11.3726221,2.98143591 11.1495188,1 8.76485473,1 L0.101102526,1 L0,1.37192382 C0,1.37192382 2.65012878,1.94628718 5.74985315,3.88770597 L10.5259591,23 L16.2537843,23 L25,1 L19.0835254,1" id="Fill-2" fill="#005C9C"></path>
                        <path d="M56.2189747,15.2178472 L59.0257617,6.98432484 L60.6044765,15.2178472 L56.2189747,15.2178472 L56.2189747,15.2178472 Z M62.0959422,23 L67,23 L62.7242455,1 L58.4303827,1 C56.4472491,1 55.9649097,2.63952493 55.9649097,2.63952493 L48,23 L53.5663827,23 L54.6803177,19.7327199 L61.4698339,19.7327199 L62.0959422,23 L62.0959422,23 Z" id="Fill-3" fill="#005C9C"></path>
                        <path d="M49.1890852,5.49133008 L50,0.926686823 C50,0.926686823 47.4959791,0 44.8856279,0 C42.0637845,0 35.3632208,1.20071323 35.3632208,7.03599762 C35.3632208,12.5273277 43.2275758,12.59555 43.2275758,15.4785125 C43.2275758,18.361475 36.1735514,17.8463964 33.8459688,16.0277024 L33,20.7992868 C33,20.7992868 35.5384906,22 39.4189635,22 C43.2988522,22 49.153447,20.0437243 49.153447,14.7235186 C49.153447,9.19750885 41.2178157,8.68299868 41.2178157,6.28043518 C41.2178157,3.87787167 46.7557564,4.18657777 49.1890852,5.49133008" id="Fill-4" fill="#005C9C"></path>
                        <path d="M14,13 L12.0409209,3.00247807 C12.0409209,3.00247807 11.8047072,1 9.27991115,1 L0.107043697,1 L0,1.37587352 C0,1.37587352 4.40912392,2.28522575 8.63884499,5.68949794 C12.6813891,8.94389652 14,13 14,13" id="Fill-5" fill="#EE9F3F"></path>
                    </g>
                </g>
            </g>
        </g>
    </g>
</svg>